<svg width="48" height="48" viewBox="0 0 48 48" fill="none" xmlns="http://www.w3.org/2000/svg">
<g clip-path="url(#clip0_1898_2605)">
<mask id="mask0_1898_2605" style="mask-type:luminance" maskUnits="userSpaceOnUse" x="0" y="0" width="48" height="48">
<path d="M0 0H47.5V47.5H0V0Z" fill="white"/>
</mask>
<g mask="url(#mask0_1898_2605)">
<path d="M33.125 36.25C35.6114 36.25 37.996 35.2623 39.7541 33.5041C41.5123 31.746 42.5 29.3614 42.5 26.875C42.5 24.3886 41.5123 22.004 39.7541 20.2459C37.996 18.4877 35.6114 17.5 33.125 17.5C31.488 17.4996 29.8798 17.9308 28.4625 18.75H28.2013C29.5042 17.979 30.5838 16.882 31.3339 15.5668C32.0839 14.2517 32.4785 12.764 32.4788 11.25C32.4788 8.93483 31.559 6.71447 29.922 5.0774C28.2849 3.44033 26.0646 2.52062 23.7494 2.52062C21.4342 2.52062 19.2139 3.44033 17.5768 5.0774C15.9397 6.71447 15.02 8.93483 15.02 11.25C15.0202 12.7641 15.415 14.252 16.1652 15.5672C16.9155 16.8823 17.9955 17.9793 19.2987 18.75H19.0387C17.6637 17.9587 16.075 17.5 14.375 17.5C11.8886 17.5 9.50403 18.4877 7.74587 20.2459C5.98772 22.004 5 24.3886 5 26.875C5 29.3614 5.98772 31.746 7.74587 33.5041C9.50403 35.2623 11.8886 36.25 14.375 36.25C17.0688 36.25 19.4887 35.1075 21.1987 33.29C20.6862 38.4412 15.2563 42.5 10 42.5H10.625C10.1277 42.5 9.65081 42.6975 9.29917 43.0492C8.94754 43.4008 8.75 43.8777 8.75 44.375C8.75 44.8723 8.94754 45.3492 9.29917 45.7008C9.65081 46.0525 10.1277 46.25 10.625 46.25H36.875C37.3723 46.25 37.8492 46.0525 38.2008 45.7008C38.5525 45.3492 38.75 44.8723 38.75 44.375C38.75 43.8777 38.5525 43.4008 38.2008 43.0492C37.8492 42.6975 37.3723 42.5 36.875 42.5H37.5C32.2437 42.5 26.8138 38.44 26.3013 33.2887C27.1751 34.2236 28.2317 34.9688 29.4055 35.4782C30.5794 35.9876 31.8454 36.2503 33.125 36.25Z" fill="black"/>
</g>
</g>
<defs>
<clipPath id="clip0_1898_2605">
<rect width="47.5" height="47.5" fill="white"/>
</clipPath>
</defs>
</svg>
