<svg width="100" height="100" viewBox="0 0 100 100" fill="none" xmlns="http://www.w3.org/2000/svg">
<path d="M18.1836 0H81.7969C84.5898 0 86.875 2.26563 86.875 5.07812V94.9219C86.875 97.7148 84.6094 100 81.7969 100H18.1836C15.3906 100 13.125 97.7344 13.125 94.9219V5.07812C13.125 2.26563 15.3906 0 18.1836 0Z" fill="#CED7DB"/>
<path d="M86.875 31.8359V94.9219C86.875 97.7148 84.6094 100 81.8164 100H18.1836C15.3906 100 13.125 97.7148 13.125 94.9219V86.3672C24.1602 80.2539 63.7305 57.3633 86.875 31.8359Z" fill="#BCCCD1"/>
<path d="M18.1836 0H81.7969C84.5898 0 86.875 2.26563 86.875 5.07812V94.9219C86.875 97.7148 84.6094 100 81.7969 100H18.1836C15.3906 100 13.125 97.7344 13.125 94.9219V5.07812C13.125 2.26563 15.3906 0 18.1836 0Z" fill="white"/>
<path d="M86.875 31.8359V94.9219C86.875 97.7148 84.6094 100 81.8164 100H18.1836C15.3906 100 13.125 97.7148 13.125 94.9219V86.3672C24.1602 80.2539 63.7305 57.3633 86.875 31.8359Z" fill="white"/>
<g clip-path="url(#clip0_339_5328)">
<path d="M49.7664 38.8262H50.4609L52.5447 46.3591H47.6826L49.7664 38.8262Z" fill="#171717"/>
<path d="M55.3226 28.6347C55.1827 28.6347 55.0458 28.648 54.9087 28.6599C55.4029 27.5828 55.6654 26.3583 55.6699 25.1101C55.6743 23.862 55.4204 22.6345 54.9338 21.5517C54.4473 20.4689 53.7453 19.5692 52.8988 18.9435C52.0524 18.3178 51.0915 17.9883 50.1133 17.9883C49.1351 17.9883 48.1742 18.3178 47.3277 18.9435C46.4813 19.5692 45.7793 20.4689 45.2927 21.5517C44.8062 22.6345 44.5523 23.862 44.5567 25.1101C44.5611 26.3583 44.8237 27.5828 45.3179 28.6599C45.1807 28.648 45.0435 28.6347 44.9039 28.6347C41.6432 28.6347 39 31.8087 39 35.7245C39 39.6403 41.6432 42.8144 44.9039 42.8144C45.9546 42.8299 46.9899 42.4907 47.9047 41.8312C48.8196 41.1717 49.5815 40.2153 50.1133 39.059C50.6451 40.2153 51.407 41.1717 52.3218 41.8312C53.2367 42.4907 54.2719 42.8299 55.3226 42.8144C58.5833 42.8144 61.2266 39.6403 61.2266 35.7245C61.2266 31.8087 58.5833 28.6347 55.3226 28.6347Z" fill="#171717"/>
<path d="M61.2266 35.7247C61.2266 39.6418 58.5837 42.8145 55.3226 42.8145C54.4956 42.8221 53.6761 42.6129 52.915 42.1998C52.1539 41.7866 51.4674 41.1784 50.8982 40.4128L52.5443 46.3594H47.6823L49.3284 40.4128C48.7591 41.1784 48.0727 41.7866 47.3116 42.1998C46.5505 42.6129 45.731 42.8221 44.9039 42.8145C41.6568 42.8145 39.0243 39.6728 39 35.7778C44.6608 36.6862 51.2941 34.6213 58.2607 29.5742C59.145 30.161 59.888 31.0429 60.4103 32.1261C60.9326 33.2093 61.2147 34.453 61.2266 35.7247Z" fill="black"/>
</g>
<path d="M50.1133 53C50.1133 53 47.1836 60.6172 39 67.1406C39 67.1406 47.0859 73.6055 50.1133 81.3594C53.1406 73.5859 61.2266 67.1406 61.2266 67.1406C53.043 60.6172 50.1133 53 50.1133 53Z" fill="#F11F20"/>
<defs>
<clipPath id="clip0_339_5328">
<rect width="22.2266" height="28.3594" fill="white" transform="translate(39 18)"/>
</clipPath>
</defs>
</svg>
