<svg width="100" height="100" viewBox="0 0 100 100" fill="none" xmlns="http://www.w3.org/2000/svg">
<path d="M18.1836 0H81.7969C84.5898 0 86.875 2.26563 86.875 5.07812V94.9219C86.875 97.7148 84.6094 100 81.7969 100H18.1836C15.3906 100 13.125 97.7344 13.125 94.9219V5.07812C13.125 2.26563 15.3906 0 18.1836 0Z" fill="white"/>
<path d="M86.875 31.8359V94.9219C86.875 97.7148 84.6094 100 81.8164 100H18.1836C15.3906 100 13.125 97.7148 13.125 94.9219V86.3672C24.1602 80.2539 63.7305 57.3633 86.875 31.8359Z" fill="white"/>
<path d="M51.0352 35.7812C51.0352 35.7812 48.1055 43.3984 39.9219 49.9219C39.9219 49.9219 48.0078 56.3867 51.0352 64.1406C54.0625 56.3672 62.1484 49.9219 62.1484 49.9219C53.9648 43.3984 51.0352 35.7812 51.0352 35.7812Z" fill="#F11F20"/>
</svg>
