<svg width="100" height="100" viewBox="0 0 100 100" fill="none" xmlns="http://www.w3.org/2000/svg">
<path d="M18.1836 0H81.7969C84.5898 0 86.875 2.26563 86.875 5.07812V94.9219C86.875 97.7148 84.6094 100 81.7969 100H18.1836C15.3906 100 13.125 97.7344 13.125 94.9219V5.07812C13.125 2.26563 15.3906 0 18.1836 0Z" fill="white"/>
<path d="M86.875 31.8359V94.9219C86.875 97.7148 84.6094 100 81.8164 100H18.1836C15.3906 100 13.125 97.7148 13.125 94.9219V86.3672C24.1602 80.2539 63.7305 57.3633 86.875 31.8359Z" fill="white"/>
<path d="M41.1113 36.5C42.205 42.0859 47.1074 42.3398 49.1972 36.207C49.0214 39.7812 48.4355 43.3164 47.4785 46.7734C49.4511 46.3633 51.5019 46.3633 53.4746 46.7734C52.5175 43.3164 51.9511 39.7812 51.7558 36.207C53.8457 42.3398 58.7675 42.0859 59.8418 36.5C61.1504 29.7227 50.4668 19 50.4668 19C50.4668 19 39.8027 29.7227 41.1113 36.5Z" fill="black"/>
<path d="M50.1133 53C50.1133 53 47.1836 60.6172 39 67.1406C39 67.1406 47.0859 73.6055 50.1133 81.3594C53.1406 73.5859 61.2266 67.1406 61.2266 67.1406C53.043 60.6172 50.1133 53 50.1133 53Z" fill="#F11F20"/>
</svg>
