<svg width="48" height="48" viewBox="0 0 48 48" fill="none" xmlns="http://www.w3.org/2000/svg">
<g clip-path="url(#clip0_1898_2783)">
<path d="M47.9534 25.012C47.9534 25.012 48.6874 18.024 34.4774 8.398C34.4774 8.398 27.5554 3.862 24.3714 0.246C24.2494 0.12 24.1874 0 24.0054 0C23.8214 0 23.7614 0.12 23.6374 0.246C20.4514 3.862 13.5314 8.398 13.5314 8.398C-0.678606 18.022 0.0553941 25.012 0.0553941 25.012C-0.556606 31.02 3.97539 36.844 10.0394 36.844C14.8794 36.844 18.3694 34.086 19.6534 32.86L20.2054 32.31C20.4494 32.002 20.7554 31.694 20.8174 31.574L21.0014 31.82C21.1234 32.066 21.2454 32.31 21.2454 32.556C21.8574 37.582 15.6114 43.896 13.7734 45.614C13.7734 45.614 13.2834 46.166 13.2834 46.904V48H34.6614V46.896C34.6614 46.16 34.1714 45.606 34.1714 45.606C32.3334 43.892 26.0854 37.576 26.6974 32.55C26.7594 32.304 26.8214 31.998 26.9414 31.814L27.1254 31.568C27.1854 31.752 27.4934 32.058 27.7374 32.304L28.2894 32.856C29.5734 34.082 33.0674 36.84 37.9034 36.84C44.0314 36.782 48.5054 31.02 47.9534 25.012Z" fill="black"/>
<path d="M23.9994 0C23.8194 0.002 23.7594 0.122 23.6374 0.246C20.4514 3.862 13.5314 8.398 13.5314 8.398C-0.678606 18.022 0.0553941 25.012 0.0553941 25.012C-0.556606 31.02 3.97539 36.844 10.0394 36.844C14.8794 36.844 18.3694 34.086 19.6534 32.86L20.2054 32.31C20.4494 32.002 20.7554 31.694 20.8174 31.574L21.0014 31.82C21.1234 32.066 21.2454 32.31 21.2454 32.556C21.8574 37.582 15.6114 43.896 13.7734 45.614C13.7734 45.614 13.2834 46.166 13.2834 46.904V48H23.9994V0Z" fill="black"/>
</g>
<defs>
<clipPath id="clip0_1898_2783">
<rect width="48" height="48" fill="white"/>
</clipPath>
</defs>
</svg>
