<svg width="100" height="100" viewBox="0 0 100 100" fill="none" xmlns="http://www.w3.org/2000/svg">
<path d="M18.1836 0H81.7969C84.5898 0 86.875 2.26563 86.875 5.07812V94.9219C86.875 97.7148 84.6094 100 81.7969 100H18.1836C15.3906 100 13.125 97.7344 13.125 94.9219V5.07812C13.125 2.26563 15.3906 0 18.1836 0Z" fill="white"/>
<path d="M86.875 31.8359V94.9219C86.875 97.7148 84.6094 100 81.8164 100H18.1836C15.3906 100 13.125 97.7148 13.125 94.9219V86.3672C24.1602 80.2539 63.7305 57.3633 86.875 31.8359Z" fill="white"/>
<path d="M52.5583 38.2233C51.8747 39.1413 51.4255 40.2155 51.2106 41.3483C51.1911 41.4069 51.1325 41.4264 51.0934 41.4264C51.0544 41.4264 51.0348 41.3874 51.0153 41.3483C50.8395 40.3913 50.488 39.4928 49.9997 38.6725C47.9294 35.3913 42.8513 35.235 40.4489 38.3014C39.4528 39.5514 38.8278 41.485 39.238 44.4342C40.4098 52.6569 51.1325 63.9264 51.1325 63.9264C51.1325 63.9264 61.8552 52.6569 63.027 44.4342C63.4958 41.0944 62.6364 39.0827 61.4255 37.8327C58.9645 35.3717 54.6286 35.5085 52.5583 38.2233Z" fill="#F11F20"/>
</svg>
