<svg width="100" height="100" viewBox="0 0 100 100" fill="none" xmlns="http://www.w3.org/2000/svg">
<path d="M18.1836 0H81.7969C84.5898 0 86.875 2.26563 86.875 5.07812V94.9219C86.875 97.7148 84.6094 100 81.7969 100H18.1836C15.3906 100 13.125 97.7344 13.125 94.9219V5.07812C13.125 2.26563 15.3906 0 18.1836 0Z" fill="white"/>
<path d="M86.875 31.8359V94.9219C86.875 97.7148 84.6094 100 81.8164 100H18.1836C15.3906 100 13.125 97.7148 13.125 94.9219V86.3672C24.1602 80.2539 63.7305 57.3633 86.875 31.8359Z" fill="white"/>
<path d="M41.1113 35.5C42.205 41.0859 47.1074 41.3398 49.1972 35.207C49.0214 38.7812 48.4355 42.3164 47.4785 45.7734C49.4511 45.3633 51.5019 45.3633 53.4746 45.7734C52.5175 42.3164 51.9511 38.7812 51.7558 35.207C53.8457 41.3398 58.7675 41.0859 59.8418 35.5C61.1504 28.7227 50.4668 18 50.4668 18C50.4668 18 39.8027 28.7227 41.1113 35.5Z" fill="black"/>
<path d="M51.4479 57.1413C50.7643 58.0592 50.3151 59.1335 50.1003 60.2663C50.0807 60.3249 50.0221 60.3444 49.9831 60.3444C49.944 60.3444 49.9245 60.3053 49.905 60.2663C49.7292 59.3092 49.3776 58.4108 48.8893 57.5905C46.819 54.3092 41.7409 54.153 39.3386 57.2194C38.3425 58.4694 37.7175 60.403 38.1276 63.3522C39.2995 71.5749 50.0221 82.8444 50.0221 82.8444C50.0221 82.8444 60.7448 71.5749 61.9167 63.3522C62.3854 60.0124 61.5261 58.0006 60.3151 56.7506C57.8542 54.2897 53.5182 54.4264 51.4479 57.1413Z" fill="#F11F20"/>
</svg>
