<svg width="100" height="100" viewBox="0 0 100 100" fill="none" xmlns="http://www.w3.org/2000/svg">
<path d="M18.1836 0H81.7969C84.5898 0 86.875 2.26563 86.875 5.07812V94.9219C86.875 97.7148 84.6094 100 81.7969 100H18.1836C15.3906 100 13.125 97.7344 13.125 94.9219V5.07812C13.125 2.26563 15.3906 0 18.1836 0Z" fill="white"/>
<path d="M86.875 31.8359V94.9219C86.875 97.7148 84.6094 100 81.8164 100H18.1836C15.3906 100 13.125 97.7148 13.125 94.9219V86.3672C24.1602 80.2539 63.7305 57.3633 86.875 31.8359Z" fill="white"/>
<path d="M18.1836 0H81.7969C84.5898 0 86.875 2.26563 86.875 5.07812V94.9219C86.875 97.7148 84.6094 100 81.7969 100H18.1836C15.3906 100 13.125 97.7344 13.125 94.9219V5.07812C13.125 2.26563 15.3906 0 18.1836 0Z" fill="white"/>
<path d="M86.875 31.8359V94.9219C86.875 97.7148 84.6094 100 81.8164 100H18.1836C15.3906 100 13.125 97.7148 13.125 94.9219V86.3672C24.1602 80.2539 63.7305 57.3633 86.875 31.8359Z" fill="white"/>
<g clip-path="url(#clip0_339_5347)">
<path d="M48.7664 37.8262H49.4609L51.5447 45.3591H46.6826L48.7664 37.8262Z" fill="#171717"/>
<path d="M54.3226 27.6347C54.1827 27.6347 54.0458 27.648 53.9087 27.6599C54.4029 26.5828 54.6654 25.3583 54.6699 24.1101C54.6743 22.862 54.4204 21.6345 53.9338 20.5517C53.4473 19.4689 52.7453 18.5692 51.8988 17.9435C51.0524 17.3178 50.0915 16.9883 49.1133 16.9883C48.1351 16.9883 47.1742 17.3178 46.3277 17.9435C45.4813 18.5692 44.7793 19.4689 44.2927 20.5517C43.8062 21.6345 43.5523 22.862 43.5567 24.1101C43.5611 25.3583 43.8237 26.5828 44.3179 27.6599C44.1807 27.648 44.0435 27.6347 43.9039 27.6347C40.6432 27.6347 38 30.8087 38 34.7245C38 38.6403 40.6432 41.8144 43.9039 41.8144C44.9546 41.8299 45.9899 41.4907 46.9047 40.8312C47.8196 40.1717 48.5815 39.2153 49.1133 38.059C49.6451 39.2153 50.407 40.1717 51.3218 40.8312C52.2367 41.4907 53.2719 41.8299 54.3226 41.8144C57.5833 41.8144 60.2266 38.6403 60.2266 34.7245C60.2266 30.8087 57.5833 27.6347 54.3226 27.6347Z" fill="#171717"/>
<path d="M60.2266 34.7247C60.2266 38.6418 57.5837 41.8145 54.3226 41.8145C53.4956 41.8221 52.6761 41.6129 51.915 41.1998C51.1539 40.7866 50.4674 40.1784 49.8982 39.4128L51.5443 45.3594H46.6823L48.3284 39.4128C47.7591 40.1784 47.0727 40.7866 46.3116 41.1998C45.5505 41.6129 44.731 41.8221 43.9039 41.8145C40.6568 41.8145 38.0243 38.6728 38 34.7778C43.6608 35.6862 50.2941 33.6213 57.2607 28.5742C58.145 29.161 58.888 30.0429 59.4103 31.1261C59.9326 32.2093 60.2147 33.453 60.2266 34.7247Z" fill="black"/>
</g>
<path d="M51.4479 54.5006C50.7643 55.4186 50.3151 56.4928 50.1003 57.6256C50.0807 57.6842 50.0221 57.7038 49.9831 57.7038C49.944 57.7038 49.9245 57.6647 49.905 57.6256C49.7292 56.6686 49.3776 55.7702 48.8893 54.9499C46.819 51.6686 41.7409 51.5124 39.3386 54.5788C38.3425 55.8288 37.7175 57.7624 38.1276 60.7116C39.2995 68.9342 50.0221 80.2038 50.0221 80.2038C50.0221 80.2038 60.7448 68.9342 61.9167 60.7116C62.3854 57.3717 61.5261 55.36 60.3151 54.11C57.8542 51.6491 53.5182 51.7858 51.4479 54.5006Z" fill="#F11F20"/>
<defs>
<clipPath id="clip0_339_5347">
<rect width="22.2266" height="28.3594" fill="white" transform="translate(38 17)"/>
</clipPath>
</defs>
</svg>
