<svg width="100" height="100" viewBox="0 0 100 100" fill="none" xmlns="http://www.w3.org/2000/svg">
<path d="M18.1836 0H81.7969C84.5898 0 86.875 2.26563 86.875 5.07812V94.9219C86.875 97.7148 84.6094 100 81.7969 100H18.1836C15.3906 100 13.125 97.7344 13.125 94.9219V5.07812C13.125 2.26563 15.3906 0 18.1836 0Z" fill="white"/>
<path d="M86.875 31.8359V94.9219C86.875 97.7148 84.6094 100 81.8164 100H18.1836C15.3906 100 13.125 97.7148 13.125 94.9219V86.3672C24.1602 80.2539 63.7305 57.3633 86.875 31.8359Z" fill="white"/>
<path d="M18.1836 0H81.7969C84.5898 0 86.875 2.26563 86.875 5.07812V94.9219C86.875 97.7148 84.6094 100 81.7969 100H18.1836C15.3906 100 13.125 97.7344 13.125 94.9219V5.07812C13.125 2.26563 15.3906 0 18.1836 0Z" fill="white"/>
<path d="M86.875 31.8359V94.9219C86.875 97.7148 84.6094 100 81.8164 100H18.1836C15.3906 100 13.125 97.7148 13.125 94.9219V86.3672C24.1602 80.2539 63.7305 57.3633 86.875 31.8359Z" fill="white"/>
<g clip-path="url(#clip0_337_5308)">
<path d="M49.6335 56.5684H50.3281L52.4119 64.1013H47.5498L49.6335 56.5684Z" fill="#171717"/>
<path d="M55.1898 46.3769C55.0499 46.3769 54.913 46.3902 54.7758 46.4021C55.2701 45.325 55.5326 44.1005 55.5371 42.8523C55.5415 41.6042 55.2876 40.3767 54.801 39.2939C54.3144 38.2111 53.6125 37.3114 52.766 36.6857C51.9196 36.06 50.9587 35.7305 49.9805 35.7305C49.0022 35.7305 48.0413 36.06 47.1949 36.6857C46.3485 37.3114 45.6465 38.2111 45.1599 39.2939C44.6734 40.3767 44.4195 41.6042 44.4239 42.8523C44.4283 44.1005 44.6909 45.325 45.1851 46.4021C45.0479 46.3902 44.9107 46.3769 44.7711 46.3769C41.5104 46.3769 38.8672 49.5509 38.8672 53.4667C38.8672 57.3825 41.5104 60.5566 44.7711 60.5566C45.8218 60.5721 46.8571 60.2329 47.7719 59.5734C48.6868 58.9139 49.4487 57.9575 49.9805 56.8012C50.5122 57.9575 51.2742 58.9139 52.189 59.5734C53.1039 60.2329 54.1391 60.5721 55.1898 60.5566C58.4505 60.5566 61.0938 57.3825 61.0938 53.4667C61.0938 49.5509 58.4505 46.3769 55.1898 46.3769Z" fill="#171717"/>
<path d="M61.0938 53.4668C61.0938 57.384 58.4509 60.5567 55.1898 60.5567C54.3627 60.5643 53.5432 60.3551 52.7822 59.9419C52.0211 59.5288 51.3346 58.9206 50.7653 58.155L52.4115 64.1016H47.5494L49.1956 58.155C48.6263 58.9206 47.9399 59.5288 47.1788 59.9419C46.4177 60.3551 45.5982 60.5643 44.7711 60.5567C41.524 60.5567 38.8915 57.415 38.8672 53.52C44.528 54.4284 51.1613 52.3635 58.1279 47.3164C59.0122 47.9032 59.7551 48.7851 60.2775 49.8683C60.7998 50.9514 61.0819 52.1952 61.0938 53.4668Z" fill="black"/>
</g>
<defs>
<clipPath id="clip0_337_5308">
<rect width="22.2266" height="28.3594" fill="white" transform="translate(38.8672 35.7422)"/>
</clipPath>
</defs>
</svg>
